# SolidWorks Geometry Only Exporter
# Vertices:  177 

v 0 1.73472347597681E-18 -0.02
vn 0 8.67361737988404E-17 -1
v -1.46957615897682E-18 -0.006 -0.02
vn 0 8.67361737988404E-17 -1
v -1.07134136879182E-03 -5.90357753159178E-03 -0.02
vn 0 8.67361737988404E-17 -1
v -2.10824894448806E-03 -5.61740922383842E-03 -0.02
vn 0 8.67361737988404E-17 -1
v -3.07739566443544E-03 -5.15069276161119E-03 -0.02
vn 0 8.67361737988404E-17 -1
v -3.94763235563828E-03 -4.51842879602166E-03 -0.02
vn 0 8.67361737988404E-17 -1
v -4.69098889480818E-03 -3.7409388111524E-03 -0.02
vn 0 8.67361737988404E-17 -1
v -5.28357319114043E-03 -2.84321197483799E-03 -0.02
vn 0 8.67361737988404E-17 -1
v -5.70633909777092E-03 -1.85410196624968E-03 -0.02
vn 0 8.67361737988404E-17 -1
v -5.94569857060761E-03 -8.0539959490593E-04 -0.02
vn 0 8.67361737988404E-17 -1
v -5.99395839924789E-03 2.69188982103092E-04 -0.02
vn 0 8.67361737988404E-17 -1
v -5.84956747309094E-03 1.33512560373789E-03 -0.02
vn 0 8.67361737988404E-17 -1
v -5.5171666353087E-03 2.35815018992354E-03 -0.02
vn 0 8.67361737988404E-17 -1
v -5.00743952232782E-03 3.30538188871262E-03 -0.02
vn 0 8.67361737988404E-17 -1
v -4.33676918296435E-03 4.14637589392119E-03 -0.02
vn 0 8.67361737988404E-17 -1
v -3.52671151375484E-03 4.85410196624968E-03 -0.02
vn 0 8.67361737988404E-17 -1
v -2.60330243470535E-03 5.40581320741452E-03 -0.02
vn 0 8.67361737988404E-17 -1
v -1.59622107340005E-03 5.78377716417512E-03 -0.02
vn 0 8.67361737988404E-17 -1
v -5.378358534206E-04 5.97584576397144E-03 -0.02
vn 0 8.67361737988404E-17 -1
v 5.37835853420599E-04 5.97584576397144E-03 -0.02
vn 0 8.67361737988404E-17 -1
v 1.59622107340005E-03 5.78377716417512E-03 -0.02
vn 0 8.67361737988404E-17 -1
v 2.60330243470535E-03 5.40581320741452E-03 -0.02
vn 0 8.67361737988404E-17 -1
v 3.52671151375484E-03 4.85410196624969E-03 -0.02
vn 0 8.67361737988404E-17 -1
v 4.33676918296435E-03 4.14637589392119E-03 -0.02
vn 0 8.67361737988404E-17 -1
v 5.00743952232781E-03 3.30538188871262E-03 -0.02
vn 0 8.67361737988404E-17 -1
v 5.5171666353087E-03 2.35815018992354E-03 -0.02
vn 0 8.67361737988404E-17 -1
v 5.84956747309094E-03 1.33512560373789E-03 -0.02
vn 0 8.67361737988404E-17 -1
v 5.99395839924789E-03 2.69188982103092E-04 -0.02
vn 0 8.67361737988404E-17 -1
v 5.94569857060761E-03 -8.0539959490593E-04 -0.02
vn 0 8.67361737988404E-17 -1
v 5.70633909777092E-03 -1.85410196624968E-03 -0.02
vn 0 8.67361737988404E-17 -1
v 5.28357319114043E-03 -2.84321197483799E-03 -0.02
vn 0 8.67361737988404E-17 -1
v 4.69098889480818E-03 -3.7409388111524E-03 -0.02
vn 0 8.67361737988404E-17 -1
v 3.94763235563828E-03 -4.51842879602166E-03 -0.02
vn 0 8.67361737988404E-17 -1
v 3.07739566443544E-03 -5.1506927616112E-03 -0.02
vn 0 8.67361737988404E-17 -1
v 2.10824894448806E-03 -5.61740922383842E-03 -0.02
vn 0 8.67361737988404E-17 -1
v 1.07134136879182E-03 -5.90357753159178E-03 -0.02
vn 0 8.67361737988404E-17 -1
v 0 -0.006 -1.73472479946579E-18
vn 0 -1 -8.67361737988403E-17
v -1.46957615897682E-18 -0.006 -0.02
vn 0 -1 -8.67361737988403E-17
v 1.07134136879182E-03 -5.90357753159178E-03 -0.02
vn 0.178556894798637 -0.98392958859863 -8.53422878025122E-17
v 1.07134136879182E-03 -5.90357753159178E-03 -1.72636148348782E-18
vn 0.178556894798637 -0.98392958859863 -8.53422878025122E-17
v 2.10824894448806E-03 -5.61740922383842E-03 -0.02
vn 0.351374824081343 -0.936234870639737 -8.12054304563431E-17
v 2.10824894448806E-03 -5.61740922383842E-03 -1.7015403394108E-18
vn 0.351374824081343 -0.936234870639737 -8.12054304563431E-17
v 3.07739566443544E-03 -5.1506927616112E-03 -0.02
vn 0.512899277405906 -0.858448793601866 -7.44585637592563E-17
v 3.07739566443544E-03 -5.1506927616112E-03 -1.66105913922828E-18
vn 0.512899277405906 -0.858448793601866 -7.44585637592563E-17
v 3.94763235563828E-03 -4.51842879602166E-03 -0.02
vn 0.657938725939713 -0.753071466003611 -6.53185375582367E-17
v 3.94763235563828E-03 -4.51842879602166E-03 -1.60621898202217E-18
vn 0.657938725939713 -0.753071466003611 -6.53185375582367E-17
v 4.69098889480818E-03 -3.7409388111524E-03 -0.02
vn 0.78183148246803 -0.623489801858733 -5.40791198158236E-17
v 4.69098889480818E-03 -3.7409388111524E-03 -1.53878247556769E-18
vn 0.78183148246803 -0.623489801858733 -5.40791198158236E-17
v 5.28357319114043E-03 -2.84321197483799E-03 -0.02
vn 0.880595531856738 -0.473868662472998 -4.1101554666082E-17
v 5.28357319114043E-03 -2.84321197483799E-03 -1.46091708466924E-18
vn 0.880595531856738 -0.473868662472998 -4.1101554666082E-17
v 5.70633909777092E-03 -1.85410196624968E-03 -0.02
vn 0.951056516295154 -0.309016994374947 -2.68029517309007E-17
v 5.70633909777092E-03 -1.85410196624968E-03 -1.37512546705815E-18
vn 0.951056516295154 -0.309016994374947 -2.68029517309007E-17
v 5.94569857060761E-03 -8.0539959490593E-04 -0.02
vn 0.990949761767935 -0.134233265817655 -1.16428798735461E-17
v 5.94569857060761E-03 -8.05399594905932E-04 -1.28416503591402E-18
vn 0.990949761767935 -0.134233265817655 -1.16428798735461E-17
v 5.99395839924789E-03 2.69188982103092E-04 -0.02
vn 0.998993066541315 4.48648303505151E-02 3.89140372273776E-18
v 5.99395839924789E-03 2.6918898210309E-04 -1.19095933433632E-18
vn 0.998993066541315 4.48648303505151E-02 3.89140372273776E-18
v 5.84956747309094E-03 1.33512560373789E-03 -0.02
vn 0.974927912181824 0.222520933956315 1.93006144015152E-17
v 5.84956747309094E-03 1.33512560373789E-03 -1.09850407026365E-18
vn 0.974927912181824 0.222520933956315 1.93006144015152E-17
v 5.5171666353087E-03 2.35815018992354E-03 -0.02
vn 0.919527772551451 0.393025031653924 3.40894874528295E-17
v 5.5171666353087E-03 2.35815018992354E-03 -1.00977083195577E-18
vn 0.919527772551451 0.393025031653924 3.40894874528295E-17
v 5.00743952232781E-03 3.30538188871262E-03 -0.02
vn 0.834573253721302 0.550896981452103 4.77826963284861E-17
v 5.00743952232781E-03 3.30538188871262E-03 -9.27611578701828E-19
vn 0.834573253721302 0.550896981452103 4.77826963284861E-17
v 4.33676918296435E-03 4.14637589392119E-03 -0.02
vn 0.722794863827391 0.691062648986865 5.99401300284117E-17
v 4.33676918296435E-03 4.14637589392119E-03 -8.54666976502275E-19
vn 0.722794863827391 0.691062648986865 5.99401300284117E-17
v 3.52671151375484E-03 4.85410196624969E-03 -0.02
vn 0.587785252292473 0.809016994374948 7.01710386303209E-17
v 3.52671151375484E-03 4.85410196624969E-03 -7.9328152489082E-19
vn 0.587785252292473 0.809016994374948 7.01710386303209E-17
v 2.60330243470535E-03 5.40581320741452E-03 -0.02
vn 0.433883739117558 0.900968867902419 7.81465923137287E-17
v 2.60330243470535E-03 5.40581320741452E-03 -7.45428202790373E-19
vn 0.433883739117558 0.900968867902419 7.81465923137287E-17
v 1.59622107340005E-03 5.78377716417512E-03 -0.02
vn 0.266036845566675 0.963962860695853 8.36104502209429E-17
v 1.59622107340005E-03 5.78377716417512E-03 -7.12645055347088E-19
vn 0.266036845566675 0.963962860695853 8.36104502209429E-17
v 5.37835853420599E-04 5.97584576397144E-03 -0.02
vn 8.96393089034332E-02 0.995974293995239 8.63869994631484E-17
v 5.37835853420599E-04 5.97584576397143E-03 -6.95985759893855E-19
vn 8.96393089034332E-02 0.995974293995239 8.63869994631484E-17
v -5.378358534206E-04 5.97584576397144E-03 -0.02
vn -8.96393089034334E-02 0.995974293995239 8.63869994631484E-17
v -5.378358534206E-04 5.97584576397143E-03 -6.95985759893855E-19
vn -8.96393089034334E-02 0.995974293995239 8.63869994631484E-17
v -1.59622107340005E-03 5.78377716417512E-03 -0.02
vn -0.266036845566675 0.963962860695853 8.36104502209429E-17
v -1.59622107340005E-03 5.78377716417512E-03 -7.12645055347088E-19
vn -0.266036845566675 0.963962860695853 8.36104502209429E-17
v -2.60330243470535E-03 5.40581320741452E-03 -0.02
vn -0.433883739117558 0.900968867902419 7.81465923137287E-17
v -2.60330243470535E-03 5.40581320741452E-03 -7.45428202790373E-19
vn -0.433883739117558 0.900968867902419 7.81465923137287E-17
v -3.52671151375484E-03 4.85410196624968E-03 -0.02
vn -0.587785252292473 0.809016994374947 7.01710386303209E-17
v -3.52671151375484E-03 4.85410196624968E-03 -7.9328152489082E-19
vn -0.587785252292473 0.809016994374947 7.01710386303209E-17
v -4.33676918296435E-03 4.14637589392119E-03 -0.02
vn -0.722794863827392 0.691062648986864 5.99401300284117E-17
v -4.33676918296435E-03 4.14637589392119E-03 -8.54666976502275E-19
vn -0.722794863827392 0.691062648986864 5.99401300284117E-17
v -5.00743952232782E-03 3.30538188871262E-03 -0.02
vn -0.834573253721303 0.550896981452103 4.77826963284861E-17
v -5.00743952232782E-03 3.30538188871262E-03 -9.27611578701828E-19
vn -0.834573253721303 0.550896981452103 4.77826963284861E-17
v -5.5171666353087E-03 2.35815018992354E-03 -0.02
vn -0.919527772551451 0.393025031653924 3.40894874528295E-17
v -5.5171666353087E-03 2.35815018992354E-03 -1.00977083195577E-18
vn -0.919527772551451 0.393025031653924 3.40894874528295E-17
v -5.84956747309094E-03 1.33512560373789E-03 -0.02
vn -0.974927912181824 0.222520933956315 1.93006144015152E-17
v -5.84956747309094E-03 1.33512560373789E-03 -1.09850407026365E-18
vn -0.974927912181824 0.222520933956315 1.93006144015152E-17
v -5.99395839924789E-03 2.69188982103092E-04 -0.02
vn -0.998993066541315 4.48648303505151E-02 3.89140372273777E-18
v -5.99395839924789E-03 2.69188982103091E-04 -1.19095933433632E-18
vn -0.998993066541315 4.48648303505151E-02 3.89140372273777E-18
v -5.94569857060761E-03 -8.0539959490593E-04 -0.02
vn -0.990949761767935 -0.134233265817655 -1.16428798735461E-17
v -5.94569857060761E-03 -8.05399594905932E-04 -1.28416503591402E-18
vn -0.990949761767935 -0.134233265817655 -1.16428798735461E-17
v -5.70633909777092E-03 -1.85410196624968E-03 -0.02
vn -0.951056516295154 -0.309016994374947 -2.68029517309007E-17
v -5.70633909777092E-03 -1.85410196624968E-03 -1.37512546705815E-18
vn -0.951056516295154 -0.309016994374947 -2.68029517309007E-17
v -5.28357319114043E-03 -2.84321197483799E-03 -0.02
vn -0.880595531856738 -0.473868662472998 -4.1101554666082E-17
v -5.28357319114043E-03 -2.84321197483799E-03 -1.46091708466924E-18
vn -0.880595531856738 -0.473868662472998 -4.1101554666082E-17
v -4.69098889480818E-03 -3.7409388111524E-03 -0.02
vn -0.78183148246803 -0.623489801858733 -5.40791198158236E-17
v -4.69098889480818E-03 -3.7409388111524E-03 -1.53878247556769E-18
vn -0.78183148246803 -0.623489801858733 -5.40791198158236E-17
v -3.94763235563828E-03 -4.51842879602166E-03 -0.02
vn -0.657938725939713 -0.753071466003611 -6.53185375582367E-17
v -3.94763235563828E-03 -4.51842879602166E-03 -1.60621898202217E-18
vn -0.657938725939713 -0.753071466003611 -6.53185375582367E-17
v -3.07739566443544E-03 -5.15069276161119E-03 -0.02
vn -0.512899277405906 -0.858448793601866 -7.44585637592563E-17
v -3.07739566443544E-03 -5.1506927616112E-03 -1.66105913922828E-18
vn -0.512899277405906 -0.858448793601866 -7.44585637592563E-17
v -2.10824894448806E-03 -5.61740922383842E-03 -0.02
vn -0.351374824081343 -0.936234870639737 -8.12054304563431E-17
v -2.10824894448806E-03 -5.61740922383842E-03 -1.7015403394108E-18
vn -0.351374824081343 -0.936234870639737 -8.12054304563431E-17
v -1.07134136879182E-03 -5.90357753159178E-03 -0.02
vn -0.178556894798637 -0.98392958859863 -8.53422878025122E-17
v -1.07134136879182E-03 -5.90357753159178E-03 -1.72636148348782E-18
vn -0.178556894798637 -0.98392958859863 -8.53422878025122E-17
v -5.48482755730145E-03 0.0095 0
vn -0 -0 -1
v 5.48482755730145E-03 0.0095 0
vn -0 -0 -1
v 5.37835853420599E-04 5.97584576397143E-03 -6.95985759893855E-19
vn -0 -0 -1
v -5.378358534206E-04 5.97584576397143E-03 -6.95985759893855E-19
vn -0 -0 -1
v 2.60330243470535E-03 5.40581320741452E-03 -7.45428202790373E-19
vn -0 -0 -1
v 1.59622107340005E-03 5.78377716417512E-03 -7.12645055347088E-19
vn -0 -0 -1
v -1.09696551146029E-02 -6.59990356548249E-19 0
vn -0 -0 -1
v -5.00743952232782E-03 3.30538188871262E-03 -9.27611578701828E-19
vn -0 -0 -1
v -4.33676918296435E-03 4.14637589392119E-03 -8.54666976502275E-19
vn -0 -0 -1
v -2.60330243470535E-03 5.40581320741452E-03 -7.45428202790373E-19
vn -0 -0 -1
v -3.52671151375484E-03 4.85410196624968E-03 -7.9328152489082E-19
vn -0 -0 -1
v -1.59622107340005E-03 5.78377716417512E-03 -7.12645055347088E-19
vn -0 -0 -1
v -5.48482755730145E-03 -0.0095 0
vn -0 -0 -1
v -5.28357319114043E-03 -2.84321197483799E-03 -1.46091708466924E-18
vn -0 -0 -1
v -5.5171666353087E-03 2.35815018992354E-03 -1.00977083195577E-18
vn -0 -0 -1
v 4.33676918296435E-03 4.14637589392119E-03 -8.54666976502275E-19
vn -0 -0 -1
v 3.52671151375484E-03 4.85410196624969E-03 -7.9328152489082E-19
vn -0 -0 -1
v 1.09696551146029E-02 -1.7817832785785E-18 0
vn -0 -0 -1
v 5.5171666353087E-03 2.35815018992354E-03 -1.00977083195577E-18
vn -0 -0 -1
v 5.00743952232781E-03 3.30538188871262E-03 -9.27611578701828E-19
vn -0 -0 -1
v 5.48482755730145E-03 -0.0095 0
vn -0 -0 -1
v 4.69098889480818E-03 -3.7409388111524E-03 -1.53878247556769E-18
vn -0 -0 -1
v 5.28357319114043E-03 -2.84321197483799E-03 -1.46091708466924E-18
vn -0 -0 -1
v -5.70633909777092E-03 -1.85410196624968E-03 -1.37512546705815E-18
vn -0 -0 -1
v -5.84956747309094E-03 1.33512560373789E-03 -1.09850407026365E-18
vn -0 -0 -1
v 5.94569857060761E-03 -8.05399594905932E-04 -1.28416503591402E-18
vn -0 -0 -1
v 5.99395839924789E-03 2.6918898210309E-04 -1.19095933433632E-18
vn -0 -0 -1
v 5.70633909777092E-03 -1.85410196624968E-03 -1.37512546705815E-18
vn -0 -0 -1
v 3.94763235563828E-03 -4.51842879602166E-03 -1.60621898202217E-18
vn -0 -0 -1
v -3.07739566443544E-03 -5.1506927616112E-03 -1.66105913922828E-18
vn -0 -0 -1
v -2.10824894448806E-03 -5.61740922383842E-03 -1.7015403394108E-18
vn -0 -0 -1
v -5.94569857060761E-03 -8.05399594905932E-04 -1.28416503591402E-18
vn -0 -0 -1
v 5.84956747309094E-03 1.33512560373789E-03 -1.09850407026365E-18
vn -0 -0 -1
v 3.07739566443544E-03 -5.1506927616112E-03 -1.66105913922828E-18
vn -0 -0 -1
v -3.94763235563828E-03 -4.51842879602166E-03 -1.60621898202217E-18
vn -0 -0 -1
v -4.69098889480818E-03 -3.7409388111524E-03 -1.53878247556769E-18
vn -0 -0 -1
v 0 -0.006 -1.73472479946579E-18
vn -0 -0 -1
v 1.07134136879182E-03 -5.90357753159178E-03 -1.72636148348782E-18
vn -0 -0 -1
v 2.10824894448806E-03 -5.61740922383842E-03 -1.7015403394108E-18
vn -0 -0 -1
v -1.07134136879182E-03 -5.90357753159178E-03 -1.72636148348782E-18
vn -0 -0 -1
v -5.99395839924789E-03 2.69188982103091E-04 -1.19095933433632E-18
vn -0 -0 -1
v 5.48482755730145E-03 0.0095 0.008
vn 0.866025403784439 0.5 -0
v 1.09696551146029E-02 -1.7817832785785E-18 0.008
vn 0.866025403784439 0.5 -0
v 1.09696551146029E-02 -1.7817832785785E-18 0
vn 0.866025403784439 0.5 -0
v 5.48482755730145E-03 0.0095 0
vn 0.866025403784439 0.5 -0
v 1.09696551146029E-02 -1.7817832785785E-18 0.008
vn 0 0 1
v -1.09696551146029E-02 -6.59990356548249E-19 0.008
vn 0 0 1
v -5.48482755730145E-03 -0.0095 0.008
vn 0 0 1
v 5.48482755730145E-03 0.0095 0.008
vn 0 0 1
v -5.48482755730145E-03 0.0095 0.008
vn 0 0 1
v 5.48482755730145E-03 -0.0095 0.008
vn 0 0 1
v -5.48482755730145E-03 0.0095 0.008
vn -3.16276757628876E-16 1 -0
v 5.48482755730145E-03 0.0095 0.008
vn -3.16276757628876E-16 1 -0
v 5.48482755730145E-03 0.0095 0
vn -3.16276757628876E-16 1 -0
v -5.48482755730145E-03 0.0095 0
vn -3.16276757628876E-16 1 -0
v -1.09696551146029E-02 -6.59990356548249E-19 0.008
vn -0.866025403784439 0.5 -0
v -5.48482755730145E-03 0.0095 0.008
vn -0.866025403784439 0.5 -0
v -5.48482755730145E-03 0.0095 0
vn -0.866025403784439 0.5 -0
v -1.09696551146029E-02 -6.59990356548249E-19 0
vn -0.866025403784439 0.5 -0
v -5.48482755730145E-03 -0.0095 0.008
vn -0.866025403784439 -0.5 0
v -1.09696551146029E-02 -6.59990356548249E-19 0.008
vn -0.866025403784439 -0.5 0
v -1.09696551146029E-02 -6.59990356548249E-19 0
vn -0.866025403784439 -0.5 0
v -5.48482755730145E-03 -0.0095 0
vn -0.866025403784439 -0.5 0
v 5.48482755730145E-03 -0.0095 0
vn -0 -1 -0
v 5.48482755730145E-03 -0.0095 0.008
vn -0 -1 -0
v -5.48482755730145E-03 -0.0095 0.008
vn -0 -1 -0
v -5.48482755730145E-03 -0.0095 0
vn -0 -1 -0
v 1.09696551146029E-02 -1.7817832785785E-18 0.008
vn 0.866025403784439 -0.5 -0
v 5.48482755730145E-03 -0.0095 0.008
vn 0.866025403784439 -0.5 -0
v 5.48482755730145E-03 -0.0095 0
vn 0.866025403784439 -0.5 -0
v 1.09696551146029E-02 -1.7817832785785E-18 0
vn 0.866025403784439 -0.5 -0
g mesh1
f 150//150 148//148 149//149
f 148//148 150//150 151//151
f 160//160 158//158 159//159
f 158//158 160//160 161//161
f 164//164 162//162 163//163
f 162//162 164//164 165//165
f 168//168 166//166 167//167
f 166//166 168//168 169//169
f 172//172 170//170 171//171
f 170//170 172//172 173//173
f 176//176 174//174 175//175
f 174//174 176//176 177//177
f 152//152 156//156 153//153
f 152//152 154//154 157//157
f 156//156 152//152 155//155
f 154//154 152//152 153//153
f 107//107 118//118 116//116
f 123//123 108//108 122//122
f 126//126 124//124 125//125
f 129//129 127//127 128//128
f 120//120 113//113 130//130
f 113//113 121//121 131//131
f 108//108 123//123 111//111
f 124//124 126//126 108//108
f 133//133 124//124 132//132
f 134//134 124//124 129//129
f 113//113 114//114 121//121
f 114//114 113//113 107//107
f 130//130 113//113 138//138
f 107//107 117//117 115//115
f 125//125 124//124 139//139
f 124//124 134//134 132//132
f 135//135 127//127 140//140
f 136//136 119//119 141//141
f 119//119 120//120 142//142
f 108//108 126//126 122//122
f 112//112 108//108 111//111
f 107//107 109//109 110//110
f 107//107 110//110 118//118
f 120//120 119//119 113//113
f 114//114 107//107 115//115
f 117//117 107//107 116//116
f 128//128 127//127 135//135
f 108//108 112//112 109//109
f 127//127 129//129 124//124
f 143//143 127//127 119//119
f 119//119 142//142 141//141
f 124//124 133//133 139//139
f 137//137 119//119 136//136
f 109//109 107//107 108//108
f 113//113 131//131 147//147
f 127//127 143//143 144//144
f 119//119 137//137 146//146
f 127//127 145//145 140//140
f 138//138 113//113 147//147
f 143//143 119//119 146//146
f 145//145 127//127 144//144
f 1//1 3//3 4//4
f 1//1 4//4 5//5
f 1//1 5//5 6//6
f 1//1 6//6 7//7
f 1//1 7//7 8//8
f 1//1 36//36 2//2
f 1//1 35//35 36//36
f 1//1 34//34 35//35
f 1//1 33//33 34//34
f 1//1 32//32 33//33
f 1//1 31//31 32//32
f 1//1 30//30 31//31
f 1//1 29//29 30//30
f 1//1 28//28 29//29
f 1//1 27//27 28//28
f 1//1 26//26 27//27
f 1//1 25//25 26//26
f 1//1 24//24 25//25
f 1//1 23//23 24//24
f 1//1 22//22 23//23
f 1//1 21//21 22//22
f 1//1 20//20 21//21
f 1//1 19//19 20//20
f 1//1 18//18 19//19
f 3//3 1//1 2//2
f 1//1 17//17 18//18
f 1//1 16//16 17//17
f 1//1 15//15 16//16
f 1//1 14//14 15//15
f 1//1 13//13 14//14
f 1//1 12//12 13//13
f 1//1 11//11 12//12
f 1//1 10//10 11//11
f 1//1 9//9 10//10
f 1//1 8//8 9//9
f 62//62 63//63 64//64
f 60//60 61//61 62//62
f 58//58 59//59 60//60
f 56//56 57//57 58//58
f 54//54 55//55 56//56
f 52//52 53//53 54//54
f 50//50 51//51 52//52
f 48//48 49//49 50//50
f 46//46 47//47 48//48
f 44//44 45//45 46//46
f 42//42 43//43 44//44
f 40//40 41//41 42//42
f 37//37 39//39 40//40
f 64//64 65//65 66//66
f 66//66 67//67 68//68
f 68//68 69//69 70//70
f 70//70 71//71 72//72
f 72//72 73//73 74//74
f 74//74 75//75 76//76
f 76//76 77//77 78//78
f 78//78 79//79 80//80
f 80//80 81//81 82//82
f 82//82 83//83 84//84
f 86//86 87//87 88//88
f 88//88 89//89 90//90
f 90//90 91//91 92//92
f 92//92 93//93 94//94
f 94//94 95//95 96//96
f 96//96 97//97 98//98
f 98//98 99//99 100//100
f 100//100 101//101 102//102
f 102//102 103//103 104//104
f 104//104 105//105 106//106
f 106//106 38//38 37//37
f 38//38 106//106 105//105
f 105//105 104//104 103//103
f 103//103 102//102 101//101
f 101//101 100//100 99//99
f 99//99 98//98 97//97
f 97//97 96//96 95//95
f 95//95 94//94 93//93
f 93//93 92//92 91//91
f 91//91 90//90 89//89
f 89//89 88//88 87//87
f 87//87 86//86 85//85
f 85//85 84//84 83//83
f 83//83 82//82 81//81
f 81//81 80//80 79//79
f 79//79 78//78 77//77
f 77//77 76//76 75//75
f 75//75 74//74 73//73
f 73//73 72//72 71//71
f 71//71 70//70 69//69
f 69//69 68//68 67//67
f 67//67 66//66 65//65
f 65//65 64//64 63//63
f 63//63 62//62 61//61
f 61//61 60//60 59//59
f 59//59 58//58 57//57
f 57//57 56//56 55//55
f 55//55 54//54 53//53
f 53//53 52//52 51//51
f 51//51 50//50 49//49
f 49//49 48//48 47//47
f 47//47 46//46 45//45
f 45//45 44//44 43//43
f 43//43 42//42 41//41
f 41//41 40//40 39//39
f 39//39 37//37 38//38
f 84//84 85//85 86//86

