# SolidWorks Geometry Only Exporter
# Vertices:  188 

v 1.53665478974679E-02 -1.67702356041052E-02 -0.004
vn 0.276849223921306 -0.960913371336964 0
v 1.53665478974679E-02 -1.67702356041052E-02 0.004
vn 0.276849223921306 -0.960913371336964 0
v 0.014072406175719 -1.70707715762515E-02 0.004
vn 0.174948300948951 -0.984577621112259 0
v 0.014072406175719 -1.70707715762515E-02 -0.004
vn 0.174948300948951 -0.984577621112259 0
v 0.014072406175719 -1.70707715762515E-02 -0.004
vn 0.174948300948951 -0.984577621112259 0
v 0.014072406175719 -1.70707715762515E-02 0.004
vn 0.174948300948951 -0.984577621112259 0
v 9.9045419390193E-03 -1.74610023552423E-02 0.004
vn 1.08591577717749E-02 -0.999941037607962 0
v 9.9045419390193E-03 -1.74610023552423E-02 -0.004
vn 1.08591577717749E-02 -0.999941037607962 0
v 5.7291860068427E-03 -0.017161377262718 0.004
vn -0.153524934046195 -0.988144774122755 0
v 5.7291860068427E-03 -0.017161377262718 -0.004
vn -0.153524934046195 -0.988144774122755 0
v 1.65974639692154E-03 -1.61800345001538E-02 0.004
vn -0.3137390919171 -0.94950923228952 0
v 1.65974639692154E-03 -1.61800345001538E-02 -0.004
vn -0.3137390919171 -0.94950923228952 0
v -2.19324569605345E-03 -1.45436285945471E-02 0.004
vn -0.465431694002724 -0.885083802934928 0
v -2.19324569605345E-03 -1.45436285945471E-02 -0.004
vn -0.465431694002724 -0.885083802934928 0
v -5.72513806932396E-03 -1.22966064273075E-02 0.004
vn -0.60448257484014 -0.796618363279829 0
v -5.72513806932396E-03 -1.22966064273075E-02 -0.004
vn -0.60448257484014 -0.796618363279829 0
v -8.84000000000003E-03 -9.50000000000003E-03 0.004
vn -0.727114934315572 -0.686515748031509 0
v -8.84000000000003E-03 -9.50000000000003E-03 -0.004
vn -0.727114934315572 -0.686515748031509 0
v 0.01016 -9.50000000000002E-03 -0.004
vn -2.89972724194858E-16 1 0
v -8.84000000000003E-03 -9.50000000000003E-03 -0.004
vn -2.89972724194858E-16 1 0
v -8.84000000000003E-03 -9.50000000000003E-03 0.004
vn -2.89972724194858E-16 1 0
v 0.01016 -9.50000000000002E-03 0.004
vn -2.89972724194858E-16 1 0
v 0.012266717714611 -8.01728381967639E-03 -0.004
vn -0.669075855717647 0.743194119524434 0
v 0.01016 -9.50000000000002E-03 -0.004
vn -0.473785249545741 0.880640413172641 0
v 0.01016 -9.50000000000002E-03 0.004
vn -0.473785249545741 0.880640413172641 0
v 1.39618092421571E-02 -6.07734270879431E-03 -0.004
vn -0.826209129736981 0.5633635362173 0
v 0.012266717714611 -8.01728381967639E-03 0.004
vn -0.669075855717647 0.743194119524434 0
v 1.51486036747095E-02 -3.79081132363647E-03 -0.004
vn -0.93622377599318 0.351404384242815 0
v 1.39618092421571E-02 -6.07734270879431E-03 0.004
vn -0.826209129736981 0.5633635362173 0
v 1.57594182391225E-02 -1.28809033072695E-03 -0.004
vn -0.992845669717024 0.11940467379527 0
v 1.51486036747095E-02 -3.79081132363647E-03 0.004
vn -0.93622377599318 0.351404384242815 0
v 1.57594182391225E-02 1.28809033072696E-03 -0.004
vn -0.992845669717024 -0.119404673795271 0
v 1.57594182391225E-02 -1.28809033072695E-03 0.004
vn -0.992845669717024 0.11940467379527 0
v 1.51486036747095E-02 3.79081132363649E-03 -0.004
vn -0.93622377599318 -0.351404384242816 0
v 1.57594182391225E-02 1.28809033072696E-03 0.004
vn -0.992845669717024 -0.119404673795271 0
v 1.39618092421571E-02 6.07734270879432E-03 -0.004
vn -0.82620912973698 -0.5633635362173 0
v 1.51486036747095E-02 3.79081132363649E-03 0.004
vn -0.93622377599318 -0.351404384242816 0
v 0.012266717714611 8.0172838196764E-03 -0.004
vn -0.669075855717646 -0.743194119524435 0
v 1.39618092421571E-02 6.07734270879432E-03 0.004
vn -0.82620912973698 -0.5633635362173 0
v 0.01016 9.50000000000004E-03 -0.004
vn -0.473785249545741 -0.880640413172641 0
v 0.012266717714611 8.0172838196764E-03 0.004
vn -0.669075855717646 -0.743194119524435 0
v 0.01016 9.50000000000004E-03 0.004
vn -0.473785249545741 -0.880640413172641 0
v -8.84000000000004E-03 9.50000000000004E-03 -0.004
vn 1.60690174616791E-17 -1 0
v 0.01016 9.50000000000004E-03 -0.004
vn 1.60690174616791E-17 -1 0
v 0.01016 9.50000000000004E-03 0.004
vn 1.60690174616791E-17 -1 0
v -8.84000000000004E-03 9.50000000000004E-03 0.004
vn 1.60690174616791E-17 -1 0
v -8.84000000000004E-03 9.50000000000004E-03 -0.004
vn -0.727114934315585 0.686515748031494 0
v -8.84000000000004E-03 9.50000000000004E-03 0.004
vn -0.727114934315585 0.686515748031494 0
v -0.005725138069324 1.22966064273075E-02 0.004
vn -0.604482574840152 0.796618363279821 0
v -0.005725138069324 1.22966064273075E-02 -0.004
vn -0.604482574840152 0.796618363279821 0
v -2.19324569605352E-03 1.45436285945472E-02 0.004
vn -0.465431694002731 0.885083802934924 0
v -2.19324569605352E-03 1.45436285945472E-02 -0.004
vn -0.465431694002731 0.885083802934924 0
v 1.65974639692148E-03 1.61800345001539E-02 0.004
vn -0.313739091917102 0.949509232289519 0
v 1.65974639692148E-03 1.61800345001539E-02 -0.004
vn -0.313739091917102 0.949509232289519 0
v 5.72918600684265E-03 1.71613772627181E-02 0.004
vn -0.15352493404619 0.988144774122756 0
v 5.72918600684265E-03 1.71613772627181E-02 -0.004
vn -0.15352493404619 0.988144774122756 0
v 9.90454193901924E-03 1.74610023552423E-02 0.004
vn 1.08591577717855E-02 0.999941037607962 0
v 9.90454193901924E-03 1.74610023552423E-02 -0.004
vn 1.08591577717855E-02 0.999941037607962 0
v 0.014072406175719 1.70707715762515E-02 0.004
vn 0.17494830094894 0.984577621112261 0
v 0.014072406175719 1.70707715762515E-02 -0.004
vn 0.17494830094894 0.984577621112261 0
v 0.014072406175719 1.70707715762515E-02 -0.004
vn 0.17494830094894 0.984577621112261 0
v 0.014072406175719 1.70707715762515E-02 0.004
vn 0.17494830094894 0.984577621112261 0
v 0.015366547897468 1.67702356041052E-02 0.004
vn 0.276849223921306 0.960913371336964 0
v 0.015366547897468 1.67702356041052E-02 -0.004
vn 0.276849223921306 0.960913371336964 0
v 2.80120620862955E-02 -1.31269302930428E-02 -0.004
vn 0.276849223921307 -0.960913371336964 0
v 2.80120620862955E-02 -1.31269302930428E-02 0.004
vn 0.276849223921307 -0.960913371336964 0
v 1.53665478974679E-02 -1.67702356041052E-02 0.004
vn 0.276849223921307 -0.960913371336964 0
v 1.53665478974679E-02 -1.67702356041052E-02 -0.004
vn 0.276849223921307 -0.960913371336964 0
v 4.26905324461766E-02 -0.010349469214183 -0.004
vn 9.33683444227934E-02 -0.995631634822712 0
v 0.05016 -0.01 -0.004
vn -4.40687737790382E-17 -1 0
v 0.05016 -0.01 0.004
vn -4.40687737790382E-17 -1 0
v 3.52863236162631E-02 -1.13948236384405E-02 -0.004
vn 0.185920954796712 -0.982564704519493 0
v 4.26905324461766E-02 -0.010349469214183 0.004
vn 9.33683444227934E-02 -0.995631634822712 0
v 2.80120620862955E-02 -1.31269302930428E-02 -0.004
vn 0.276849223921306 -0.960913371336964 0
v 3.52863236162631E-02 -1.13948236384405E-02 0.004
vn 0.185920954796712 -0.982564704519493 0
v 2.80120620862955E-02 -1.31269302930428E-02 0.004
vn 0.276849223921306 -0.960913371336964 0
v 0.05016 -0.01 -0.004
vn -7.35013582409556E-18 -1 0
v 0.075153 -0.01 -0.004
vn -7.35013582409556E-18 -1 0
v 0.075153 -0.01 0.004
vn -7.35013582409556E-18 -1 0
v 0.10516 -0.01 0.004
vn -7.35013582409556E-18 -1 0
v 0.10516 -0.01 -0.004
vn -7.35013582409556E-18 -1 0
v 0.16016 -0.01 -0.004
vn -7.35013582409556E-18 -1 0
v 0.16016 -0.01 0.004
vn -7.35013582409556E-18 -1 0
v 0.05016 -0.01 0.004
vn -7.35013582409556E-18 -1 0
v 0.16016 -0.01 -0.004
vn 1 -1.66533453693774E-16 0
v 0.16016 9.99999999999998E-03 -0.004
vn 1 -1.66533453693774E-16 0
v 0.16016 9.99999999999998E-03 0.004
vn 1 -1.66533453693774E-16 0
v 0.16016 -0.01 0.004
vn 1 -1.66533453693774E-16 0
v 0.10516 9.99999999999999E-03 0.004
vn 0 -0 1
v 0.10516 -0.01 0.004
vn 0 -0 1
v 0.16016 -0.01 0.004
vn 0 -0 1
v 0.075153 -0.01 0.004
vn 0 -0 1
v 0.075153 0.01 0.004
vn 0 -0 1
v 1.57594182391225E-02 -1.28809033072695E-03 0.004
vn 0 -0 1
v 4.26905324461766E-02 -0.010349469214183 0.004
vn 0 -0 1
v 0.05016 -0.01 0.004
vn 0 -0 1
v 1.51486036747095E-02 -3.79081132363647E-03 0.004
vn 0 -0 1
v 3.52863236162631E-02 -1.13948236384405E-02 0.004
vn 0 -0 1
v 1.57594182391225E-02 1.28809033072696E-03 0.004
vn 0 -0 1
v 4.26905324461766E-02 0.010349469214183 0.004
vn 0 -0 1
v 3.52863236162631E-02 1.13948236384405E-02 0.004
vn 0 -0 1
v 0.05016 0.01 0.004
vn 0 -0 1
v 1.39618092421571E-02 -6.07734270879431E-03 0.004
vn 0 -0 1
v 2.80120620862955E-02 -1.31269302930428E-02 0.004
vn 0 -0 1
v 1.51486036747095E-02 3.79081132363649E-03 0.004
vn 0 -0 1
v 2.80120620862955E-02 1.31269302930428E-02 0.004
vn 0 -0 1
v 0.015366547897468 1.67702356041052E-02 0.004
vn 0 -0 1
v 0.012266717714611 8.0172838196764E-03 0.004
vn 0 -0 1
v 1.39618092421571E-02 6.07734270879432E-03 0.004
vn 0 -0 1
v 0.012266717714611 -8.01728381967639E-03 0.004
vn 0 -0 1
v 0.01016 -9.50000000000002E-03 0.004
vn 0 -0 1
v 1.65974639692154E-03 -1.61800345001538E-02 0.004
vn 0 -0 1
v 5.7291860068427E-03 -0.017161377262718 0.004
vn 0 -0 1
v -5.72513806932396E-03 -1.22966064273075E-02 0.004
vn 0 -0 1
v -2.19324569605345E-03 -1.45436285945471E-02 0.004
vn 0 -0 1
v 0.014072406175719 1.70707715762515E-02 0.004
vn 0 -0 1
v 0.01016 9.50000000000004E-03 0.004
vn 0 -0 1
v 1.65974639692148E-03 1.61800345001539E-02 0.004
vn 0 -0 1
v -2.19324569605352E-03 1.45436285945472E-02 0.004
vn 0 -0 1
v 9.9045419390193E-03 -1.74610023552423E-02 0.004
vn 0 -0 1
v -8.84000000000003E-03 -9.50000000000003E-03 0.004
vn 0 -0 1
v 0.014072406175719 -1.70707715762515E-02 0.004
vn 0 -0 1
v 5.72918600684265E-03 1.71613772627181E-02 0.004
vn 0 -0 1
v 9.90454193901924E-03 1.74610023552423E-02 0.004
vn 0 -0 1
v 1.53665478974679E-02 -1.67702356041052E-02 0.004
vn 0 -0 1
v -0.005725138069324 1.22966064273075E-02 0.004
vn 0 -0 1
v -8.84000000000004E-03 9.50000000000004E-03 0.004
vn 0 -0 1
v 0.16016 9.99999999999998E-03 0.004
vn 0 -0 1
v 0.10516 -0.01 -0.004
vn 0 0 -1
v 0.10516 9.99999999999999E-03 -0.004
vn 0 0 -1
v 0.16016 9.99999999999998E-03 -0.004
vn 0 0 -1
v 0.075153 0.01 -0.004
vn 0 0 -1
v 0.075153 -0.01 -0.004
vn 0 0 -1
v 2.80120620862955E-02 1.31269302930428E-02 -0.004
vn 0 0 -1
v 1.39618092421571E-02 6.07734270879432E-03 -0.004
vn 0 0 -1
v 0.012266717714611 8.0172838196764E-03 -0.004
vn 0 0 -1
v 1.51486036747095E-02 3.79081132363649E-03 -0.004
vn 0 0 -1
v 1.57594182391225E-02 1.28809033072696E-03 -0.004
vn 0 0 -1
v 4.26905324461766E-02 0.010349469214183 -0.004
vn 0 0 -1
v 0.05016 0.01 -0.004
vn 0 0 -1
v 3.52863236162631E-02 1.13948236384405E-02 -0.004
vn 0 0 -1
v 0.01016 9.50000000000004E-03 -0.004
vn 0 0 -1
v 0.014072406175719 1.70707715762515E-02 -0.004
vn 0 0 -1
v 1.57594182391225E-02 -1.28809033072695E-03 -0.004
vn 0 0 -1
v 4.26905324461766E-02 -0.010349469214183 -0.004
vn 0 0 -1
v 3.52863236162631E-02 -1.13948236384405E-02 -0.004
vn 0 0 -1
v 0.05016 -0.01 -0.004
vn 0 0 -1
v -2.19324569605352E-03 1.45436285945472E-02 -0.004
vn 0 0 -1
v 1.65974639692148E-03 1.61800345001539E-02 -0.004
vn 0 0 -1
v 0.015366547897468 1.67702356041052E-02 -0.004
vn 0 0 -1
v 1.51486036747095E-02 -3.79081132363647E-03 -0.004
vn 0 0 -1
v 2.80120620862955E-02 -1.31269302930428E-02 -0.004
vn 0 0 -1
v -0.005725138069324 1.22966064273075E-02 -0.004
vn 0 0 -1
v 1.39618092421571E-02 -6.07734270879431E-03 -0.004
vn 0 0 -1
v 1.53665478974679E-02 -1.67702356041052E-02 -0.004
vn 0 0 -1
v 0.012266717714611 -8.01728381967639E-03 -0.004
vn 0 0 -1
v 0.014072406175719 -1.70707715762515E-02 -0.004
vn 0 0 -1
v 5.72918600684265E-03 1.71613772627181E-02 -0.004
vn 0 0 -1
v 9.90454193901924E-03 1.74610023552423E-02 -0.004
vn 0 0 -1
v -8.84000000000004E-03 9.50000000000004E-03 -0.004
vn 0 0 -1
v 0.01016 -9.50000000000002E-03 -0.004
vn 0 0 -1
v -2.19324569605345E-03 -1.45436285945471E-02 -0.004
vn 0 0 -1
v -5.72513806932396E-03 -1.22966064273075E-02 -0.004
vn 0 0 -1
v 9.9045419390193E-03 -1.74610023552423E-02 -0.004
vn 0 0 -1
v 5.7291860068427E-03 -0.017161377262718 -0.004
vn 0 0 -1
v 1.65974639692154E-03 -1.61800345001538E-02 -0.004
vn 0 0 -1
v -8.84000000000003E-03 -9.50000000000003E-03 -0.004
vn 0 0 -1
v 0.16016 -0.01 -0.004
vn 0 0 -1
v 0.05016 0.01 0.004
vn 2.45201521301927E-16 1 -0
v 0.075153 0.01 0.004
vn 2.45201521301927E-16 1 -0
v 0.075153 0.01 -0.004
vn 2.45201521301927E-16 1 -0
v 0.10516 9.99999999999999E-03 -0.004
vn 2.45201521301927E-16 1 -0
v 0.10516 9.99999999999999E-03 0.004
vn 2.45201521301927E-16 1 -0
v 0.16016 9.99999999999998E-03 0.004
vn 2.45201521301927E-16 1 -0
v 0.16016 9.99999999999998E-03 -0.004
vn 2.45201521301927E-16 1 -0
v 0.05016 0.01 -0.004
vn 2.45201521301927E-16 1 -0
v 3.52863236162631E-02 1.13948236384405E-02 -0.004
vn 0.185920954796712 0.982564704519493 0
v 2.80120620862955E-02 1.31269302930428E-02 -0.004
vn 0.276849223921306 0.960913371336964 0
v 2.80120620862955E-02 1.31269302930428E-02 0.004
vn 0.276849223921306 0.960913371336964 0
v 4.26905324461766E-02 0.010349469214183 -0.004
vn 9.33683444227937E-02 0.995631634822712 0
v 3.52863236162631E-02 1.13948236384405E-02 0.004
vn 0.185920954796712 0.982564704519493 0
v 0.05016 0.01 -0.004
vn 1.66533453693774E-16 1 0
v 4.26905324461766E-02 0.010349469214183 0.004
vn 9.33683444227937E-02 0.995631634822712 0
v 0.05016 0.01 0.004
vn 1.66533453693774E-16 1 0
v 2.80120620862955E-02 1.31269302930428E-02 -0.004
vn 0.276849223921308 0.960913371336964 0
v 0.015366547897468 1.67702356041052E-02 -0.004
vn 0.276849223921308 0.960913371336964 0
v 0.015366547897468 1.67702356041052E-02 0.004
vn 0.276849223921308 0.960913371336964 0
v 2.80120620862955E-02 1.31269302930428E-02 0.004
vn 0.276849223921308 0.960913371336964 0
g mesh1
f 3//3 1//1 2//2
f 1//1 3//3 4//4
f 45//45 43//43 44//44
f 43//43 45//45 46//46
f 36//36 37//37 39//39
f 38//38 39//39 41//41
f 32//32 33//33 35//35
f 40//40 41//41 42//42
f 41//41 40//40 38//38
f 39//39 38//38 36//36
f 37//37 36//36 34//34
f 35//35 34//34 32//32
f 33//33 32//32 30//30
f 31//31 30//30 28//28
f 29//29 28//28 26//26
f 27//27 26//26 23//23
f 25//25 23//23 24//24
f 30//30 31//31 33//33
f 28//28 29//29 31//31
f 26//26 27//27 29//29
f 23//23 25//25 27//27
f 34//34 35//35 37//37
f 19//19 21//21 22//22
f 21//21 19//19 20//20
f 16//16 17//17 18//18
f 17//17 16//16 15//15
f 15//15 14//14 13//13
f 13//13 12//12 11//11
f 14//14 15//15 16//16
f 9//9 8//8 7//7
f 7//7 5//5 6//6
f 10//10 11//11 12//12
f 8//8 9//9 10//10
f 5//5 7//7 8//8
f 11//11 10//10 9//9
f 12//12 13//13 14//14
f 61//61 63//63 64//64
f 63//63 61//61 62//62
f 51//51 50//50 49//49
f 53//53 52//52 51//51
f 47//47 49//49 50//50
f 50//50 51//51 52//52
f 52//52 53//53 54//54
f 54//54 55//55 56//56
f 56//56 57//57 58//58
f 58//58 59//59 60//60
f 59//59 58//58 57//57
f 57//57 56//56 55//55
f 55//55 54//54 53//53
f 49//49 47//47 48//48
f 99//99 101//101 105//105
f 89//89 91//91 128//128
f 111//111 120//120 122//122
f 117//117 126//126 127//127
f 117//117 119//119 126//126
f 110//110 122//122 125//125
f 117//117 124//124 123//123
f 104//104 110//110 125//125
f 111//111 115//115 112//112
f 124//124 117//117 116//116
f 118//118 117//117 123//123
f 108//108 116//116 117//117
f 122//122 110//110 111//111
f 114//114 111//111 121//121
f 111//111 113//113 120//120
f 119//119 117//117 118//118
f 116//116 108//108 107//107
f 97//97 104//104 98//98
f 115//115 111//111 114//114
f 113//113 111//111 112//112
f 105//105 106//106 109//109
f 110//110 104//104 103//103
f 106//106 108//108 109//109
f 93//93 94//94 92//92
f 108//108 106//106 107//107
f 106//106 105//105 101//101
f 94//94 96//96 92//92
f 99//99 102//102 100//100
f 94//94 93//93 99//99
f 94//94 98//98 95//95
f 104//104 97//97 103//103
f 102//102 99//99 93//93
f 101//101 99//99 100//100
f 98//98 94//94 97//97
f 96//96 94//94 95//95
f 92//92 89//89 93//93
f 89//89 92//92 90//90
f 91//91 89//89 90//90
f 152//152 151//151 146//146
f 144//144 147//147 145//145
f 132//132 144//144 138//138
f 134//134 136//136 150//150
f 149//149 142//142 148//148
f 147//147 144//144 133//133
f 146//146 144//144 145//145
f 144//144 132//132 133//133
f 138//138 141//141 139//139
f 137//137 134//134 141//141
f 143//143 136//136 142//142
f 141//141 138//138 137//137
f 129//129 131//131 168//168
f 142//142 159//159 143//143
f 161//161 163//163 167//167
f 161//161 165//165 166//166
f 136//136 143//143 150//150
f 164//164 161//161 157//157
f 162//162 161//161 166//166
f 152//152 156//156 154//154
f 142//142 149//149 158//158
f 165//165 161//161 164//164
f 163//163 161//161 162//162
f 156//156 157//157 161//161
f 144//144 146//146 151//151
f 153//153 142//142 160//160
f 159//159 142//142 158//158
f 157//157 156//156 155//155
f 140//140 138//138 139//139
f 134//134 137//137 135//135
f 156//156 152//152 155//155
f 151//151 152//152 154//154
f 131//131 129//129 130//130
f 129//129 132//132 130//130
f 132//132 129//129 133//133
f 136//136 134//134 135//135
f 138//138 140//140 132//132
f 148//148 142//142 153//153
f 67//67 65//65 66//66
f 65//65 67//67 68//68
f 73//73 72//72 69//69
f 71//71 69//69 70//70
f 75//75 74//74 72//72
f 74//74 75//75 76//76
f 72//72 73//73 75//75
f 69//69 71//71 73//73
f 79//79 77//77 78//78
f 80//80 78//78 81//81
f 83//83 81//81 82//82
f 81//81 83//83 80//80
f 77//77 79//79 84//84
f 78//78 80//80 79//79
f 85//85 87//87 88//88
f 87//87 85//85 86//86
f 172//172 174//174 175//175
f 171//171 169//169 170//170
f 170//170 172//172 171//171
f 172//172 170//170 173//173
f 174//174 172//172 173//173
f 169//169 171//171 176//176
f 180//180 181//181 183//183
f 177//177 179//179 181//181
f 179//179 177//177 178//178
f 181//181 180//180 177//177
f 183//183 182//182 180//180
f 182//182 183//183 184//184
f 187//187 185//185 186//186
f 185//185 187//187 188//188

